<?xml version="1.0" encoding="utf-8"?>
<!-- Generator: Adobe Illustrator 21.0.2, SVG Export Plug-In . SVG Version: 6.00 Build 0)  -->
<svg version="1.1" id="Layer_1" xmlns="http://www.w3.org/2000/svg" xmlns:xlink="http://www.w3.org/1999/xlink" x="0px" y="0px"
	 viewBox="0 0 500 500" style="enable-background:new 0 0 500 500;" xml:space="preserve">
<style type="text/css">
	.st0{fill:url(#SVGID_1_);}
	.st1{fill:url(#SVGID_2_);stroke:#FFFFFF;stroke-width:2;stroke-miterlimit:10;}
	.st2{fill:url(#SVGID_3_);}
	.st3{fill:url(#SVGID_4_);stroke:#FFFFFF;stroke-width:2;stroke-miterlimit:10;}
	.st4{fill:#623113;}
	.st5{fill:#FFFFFF;}
	.st6{fill:#975A30;}
	.st7{fill:#E25B42;}
	.st8{fill:#0F365A;}
	.st9{fill:#F2F2F4;}
	.st10{fill:#F3FFFF;}
	.st11{fill:#D7553E;}
	.st12{fill:#404042;}
	.st13{fill:#F2A500;}
	.st14{fill:#C1C1C1;}
	.st15{fill:#513928;}
	.st16{fill:#1A1F21;}
	.st17{fill:#75C4B7;}
	.st18{fill:none;stroke:#0F365A;stroke-width:2;stroke-linecap:round;stroke-linejoin:round;stroke-miterlimit:10;}
	
		.st19{fill:none;stroke:#0F365A;stroke-width:2;stroke-linecap:round;stroke-linejoin:round;stroke-miterlimit:10;stroke-dasharray:8;}
	.st20{fill:#CCDAE4;}
	.st21{fill:#195E5C;}
	.st22{fill:#EAD9A4;}
	.st23{fill:#EA594B;}
	.st24{fill:#EA806B;}
	.st25{fill:#DA6E5A;}
	.st26{fill:#D3433B;}
	.st27{fill:#D5B564;}
	.st28{fill:#EF8B1E;}
	.st29{fill:#8CCBC4;}
	.st30{fill:#B2E0DA;}
	.st31{fill:#C97418;}
	.st32{fill:#1C344D;}
	.st33{fill:#D03823;}
	.st34{fill:#008A45;}
	.st35{fill:#84BE3F;}
	.st36{fill:#FF733F;}
	.st37{fill:#D07716;}
	.st38{fill:#F3A83B;}
	.st39{fill:#8B3454;}
	.st40{fill:#9F3E5C;}
	.st41{fill:#7F2A4B;}
	.st42{fill:#DA8A29;}
	.st43{fill:#98D8A1;}
	.st44{fill:#85C68B;}
	.st45{fill:#00A59F;}
	.st46{fill:#12BEB5;}
	.st47{fill:#038B84;}
	.st48{fill:#C97315;}
	.st49{fill:#7FC1B8;}
	.st50{fill:#639E97;}
	.st51{fill:#0EA08E;}
	.st52{fill:#5EAFA4;}
	.st53{fill:#7EC6BB;}
	.st54{fill:none;stroke:#176361;stroke-width:1.4192;}
	.st55{fill:#7AC143;}
	.st56{fill:#FFCA80;}
	.st57{fill:#E0AB67;}
	.st58{fill:#CE6654;}
	.st59{fill:#CE7516;}
	.st60{fill:#E95A24;}
	.st61{fill:#119D92;}
	.st62{fill:#BEEBEC;}
	.st63{fill:none;stroke:#87E2DC;stroke-width:2.8597;stroke-linecap:round;}
	.st64{fill:none;stroke:#EA594B;stroke-width:2.8597;stroke-linecap:round;}
	.st65{fill:#4A99A3;}
	.st66{fill:none;stroke:#4A99A3;stroke-width:8;stroke-linecap:round;stroke-linejoin:round;stroke-miterlimit:10;}
	.st67{fill:#D74D57;}
	.st68{fill:#795134;}
	.st69{fill:#EA6E26;}
	.st70{fill:#DAD4C4;}
	.st71{fill:#F5B317;}
	.st72{fill:#109098;}
	.st73{fill:#61A646;}
	.st74{fill:none;stroke:#5AC7D9;stroke-width:6;stroke-linecap:round;stroke-linejoin:round;stroke-miterlimit:10;}
	.st75{fill:#5AC7D9;}
	.st76{fill:#5AC7D9;stroke:#5AC7D9;stroke-width:7.2813;stroke-linecap:round;stroke-linejoin:round;stroke-miterlimit:10;}
	.st77{fill:none;stroke:#5AC7D9;stroke-width:7.2813;stroke-linecap:round;stroke-linejoin:round;stroke-miterlimit:10;}
	.st78{fill:url(#SVGID_5_);}
	.st79{fill:url(#SVGID_6_);}
	.st80{fill:url(#SVGID_7_);}
	.st81{fill:url(#SVGID_8_);}
	.st82{fill:url(#SVGID_9_);}
	.st83{fill:url(#SVGID_10_);}
	.st84{fill:url(#SVGID_11_);}
	.st85{fill:url(#SVGID_12_);}
	.st86{fill:url(#SVGID_13_);}
	.st87{fill:url(#SVGID_14_);}
	.st88{fill:url(#SVGID_15_);}
	.st89{fill:url(#SVGID_16_);}
	.st90{fill:url(#SVGID_17_);}
	.st91{fill:url(#SVGID_18_);}
	.st92{fill:url(#SVGID_19_);}
	.st93{fill:url(#SVGID_20_);}
	.st94{fill:url(#SVGID_21_);}
	
		.st95{fill-rule:evenodd;clip-rule:evenodd;fill:#5AC7D9;stroke:#5AC7D9;stroke-width:6;stroke-linecap:round;stroke-linejoin:round;stroke-miterlimit:10;}
	.st96{fill:url(#SVGID_130_);}
	.st97{fill:url(#SVGID_131_);}
	.st98{fill:url(#SVGID_132_);}
	.st99{fill:url(#SVGID_133_);}
	.st100{fill:url(#SVGID_134_);}
	.st101{fill:url(#SVGID_135_);}
	.st102{fill:url(#SVGID_136_);}
	.st103{fill:url(#SVGID_137_);}
	.st104{fill:url(#SVGID_138_);}
	.st105{fill:url(#SVGID_139_);}
	.st106{fill:url(#SVGID_140_);}
	.st107{fill:url(#SVGID_141_);}
	.st108{fill:url(#SVGID_142_);}
	.st109{fill:url(#SVGID_143_);}
	.st110{fill:url(#SVGID_144_);}
	.st111{fill:url(#SVGID_145_);}
	.st112{fill:none;stroke:#5AC7D9;stroke-width:6;stroke-miterlimit:10;}
	.st113{fill:#231F20;}
	.st114{fill:url(#SVGID_146_);}
	.st115{fill:url(#SVGID_147_);}
	.st116{fill:url(#SVGID_148_);}
	.st117{fill:url(#SVGID_149_);}
	.st118{fill:url(#SVGID_150_);}
	.st119{fill:url(#SVGID_151_);}
	.st120{fill:url(#SVGID_152_);}
	.st121{fill:url(#SVGID_153_);}
	.st122{fill:url(#SVGID_154_);}
	.st123{fill:url(#SVGID_155_);}
	.st124{fill:url(#SVGID_156_);}
	.st125{fill:url(#SVGID_157_);}
	.st126{fill:url(#SVGID_158_);}
	.st127{fill:url(#SVGID_159_);}
	.st128{fill:url(#SVGID_160_);}
	.st129{fill:url(#SVGID_161_);}
	.st130{fill:url(#SVGID_162_);}
	.st131{fill:url(#SVGID_163_);}
	.st132{fill:url(#SVGID_164_);}
	.st133{fill:url(#SVGID_165_);}
	.st134{fill:url(#SVGID_166_);}
	.st135{fill:url(#SVGID_167_);}
	.st136{fill:url(#SVGID_168_);}
	.st137{fill:url(#SVGID_169_);}
	.st138{fill:url(#SVGID_170_);}
	.st139{fill:url(#SVGID_171_);}
	.st140{fill:url(#SVGID_172_);}
	.st141{fill:url(#SVGID_173_);}
	.st142{fill:url(#SVGID_174_);}
	.st143{fill:url(#SVGID_175_);}
	.st144{fill:url(#SVGID_176_);}
	.st145{fill:url(#SVGID_177_);}
	.st146{fill:url(#SVGID_178_);}
	.st147{fill:url(#SVGID_179_);}
	.st148{fill:url(#SVGID_180_);}
	.st149{fill:url(#SVGID_181_);}
</style>
<g>
	<g>
		<linearGradient id="SVGID_1_" gradientUnits="userSpaceOnUse" x1="-9.2675" y1="53.8434" x2="469.2085" y2="478.3222">
			<stop  offset="0" style="stop-color:#32B2AB"/>
			<stop  offset="1" style="stop-color:#F6DA42"/>
		</linearGradient>
		<path class="st0" d="M450,222.1c-5,0-9,4-9,9v138.6c0,17.6-14.3,31.9-31.9,31.9H148.8c-17.6,0-31.9-14.3-31.9-31.9v-54.1L99,330
			v39.7c0,27.5,22.4,49.9,49.9,49.9h75l-7.6,12.3h-11c-9,0-16.3,7.3-16.3,16.3c0,9,7.3,16.3,16.3,16.3H352c9,0,16.3-7.3,16.3-16.3
			c0-9-7.3-16.3-16.3-16.3h-11l-7.6-12.3h75.7c27.5,0,49.9-22.4,49.9-49.9V231.1C459,226.1,454.9,222.1,450,222.1z M237.4,431.8
			l7.6-12.3h67.3l7.6,12.3H237.4z"/>
	</g>
	<g>
		<linearGradient id="SVGID_2_" gradientUnits="userSpaceOnUse" x1="-13.7951" y1="58.9469" x2="464.6809" y2="483.4257">
			<stop  offset="0" style="stop-color:#32B2AB"/>
			<stop  offset="1" style="stop-color:#F6DA42"/>
		</linearGradient>
		<path style="fill:url(#SVGID_2_);" d="M192.9,148.2c0,5-4,9-9,9h-35.1c-17.6,0-31.9,14.3-31.9,31.9v56.4l-2.1,0.4
			c-2.2,0.4-4.1,1.6-5.4,3.2c-0.8,0.5-1.6,1-2.3,1.6l-8.1,6.5v-68.1c0-27.5,22.4-49.9,49.9-49.9h35.1
			C188.8,139.2,192.9,143.2,192.9,148.2z"/>
	</g>
	<g>
		<linearGradient id="SVGID_3_" gradientUnits="userSpaceOnUse" x1="-5.7333" y1="49.8596" x2="472.7428" y2="474.3383">
			<stop  offset="0" style="stop-color:#32B2AB"/>
			<stop  offset="1" style="stop-color:#F6DA42"/>
		</linearGradient>
		<path class="st2" d="M221.9,176.8c0,5-4,9-9,9h-61.3c-5.1,0-9.3,4.2-9.3,9.3V241l-18,3.2v-49c0-15.1,12.2-27.3,27.3-27.3h61.3
			C217.8,167.8,221.9,171.9,221.9,176.8z"/>
		<linearGradient id="SVGID_4_" gradientUnits="userSpaceOnUse" x1="-4.5949" y1="48.5763" x2="473.8812" y2="473.0551">
			<stop  offset="0" style="stop-color:#32B2AB"/>
			<stop  offset="1" style="stop-color:#F6DA42"/>
		</linearGradient>
		<path style="fill:url(#SVGID_4_);" d="M434.3,272.7v47.2c0,15-12.2,27.3-27.3,27.3H151.6c-15,0-27.3-12.2-27.3-27.3v-10.2l18-14.4
			v24.5c0,5.1,4.2,9.3,9.3,9.3H407c5.1,0,9.3-4.2,9.3-9.3v-47.2c0-5,4-9,9-9S434.3,267.8,434.3,272.7z"/>
	</g>
	<g>
		<linearGradient id="SVGID_5_" gradientUnits="userSpaceOnUse" x1="-6.0373" y1="50.2022" x2="472.4388" y2="474.681">
			<stop  offset="0" style="stop-color:#32B2AB"/>
			<stop  offset="1" style="stop-color:#F6DA42"/>
		</linearGradient>
		<path class="st78" d="M253,240.8c0,5-4,9-9,9h-70.4c-2,0-3.8-0.6-5.2-1.7c0,0,0,0,0,0c0-0.2,0-0.3,0-0.4c0,0,0,0,0,0
			c0-0.5-0.1-1-0.1-1.5c0,0,0,0,0-0.1s0,0,0-0.1c-0.1-0.2-0.1-0.5-0.2-0.7c0,0,0,0,0,0c-0.1-0.3-0.1-0.5-0.2-0.8
			c-0.1-0.3-0.2-0.5-0.3-0.7c-0.1-0.2-0.2-0.5-0.4-0.7c0,0,0,0,0-0.1c-0.1-0.2-0.2-0.3-0.3-0.5c-0.2-0.3-0.4-0.5-0.6-0.8
			c-0.1-0.2-0.3-0.4-0.5-0.5c-0.2-0.2-0.3-0.3-0.5-0.5c-0.2-0.2-0.3-0.3-0.5-0.4v0c0.2-4.8,4.2-8.5,9-8.5H244
			C249,231.8,253,235.9,253,240.8z"/>
	</g>
	<g>
		<linearGradient id="SVGID_6_" gradientUnits="userSpaceOnUse" x1="-29.2201" y1="76.3341" x2="449.256" y2="500.8128">
			<stop  offset="0" style="stop-color:#32B2AB"/>
			<stop  offset="1" style="stop-color:#F6DA42"/>
		</linearGradient>
		<path class="st79" d="M244,296.5h-70.4c-5,0-9-4-9-9s4-9,9-9H244c5,0,9,4,9,9S249,296.5,244,296.5z"/>
	</g>
	<g>
		<g>
			<linearGradient id="SVGID_7_" gradientUnits="userSpaceOnUse" x1="-62.9935" y1="114.4037" x2="415.4826" y2="538.8825">
				<stop  offset="0" style="stop-color:#32B2AB"/>
				<stop  offset="1" style="stop-color:#F6DA42"/>
			</linearGradient>
			<path class="st80" d="M124.3,286.7l7.1-5.7c0.1-0.1,0.1-0.1,0.2-0.2L124.3,286.7z"/>
			<linearGradient id="SVGID_8_" gradientUnits="userSpaceOnUse" x1="-88.8064" y1="143.5003" x2="389.6697" y2="567.9791">
				<stop  offset="0" style="stop-color:#32B2AB"/>
				<stop  offset="1" style="stop-color:#F6DA42"/>
			</linearGradient>
			<path class="st81" d="M165.2,246.2C165.2,246.2,165.2,246.1,165.2,246.2c0-0.1,0-0.1,0-0.1c-0.1-0.2-0.1-0.5-0.2-0.7c0,0,0,0,0,0
				c-0.1-0.3-0.1-0.5-0.2-0.8c-0.1-0.3-0.2-0.5-0.3-0.7c-0.1-0.2-0.2-0.5-0.4-0.7c0,0,0,0,0-0.1c-0.1-0.2-0.2-0.3-0.3-0.5
				c-0.2-0.3-0.4-0.5-0.6-0.8c-0.1-0.2-0.3-0.4-0.5-0.5c-0.2-0.2-0.3-0.3-0.5-0.5c-0.2-0.2-0.3-0.3-0.5-0.4v0h0
				c-0.2-0.1-0.4-0.2-0.5-0.4c-0.2-0.1-0.4-0.2-0.6-0.3c0,0-0.1,0-0.1,0c-0.2-0.1-0.4-0.2-0.6-0.3c0,0,0,0,0,0
				c-0.1-0.1-0.3-0.1-0.4-0.2c-0.1-0.1-0.3-0.1-0.4-0.1c-0.1-0.1-0.3-0.1-0.4-0.1c-0.2,0-0.3-0.1-0.5-0.1c-0.1,0-0.2,0-0.3,0
				c0,0-0.1,0-0.1,0c-0.2,0-0.3-0.1-0.5-0.1c-0.3,0-0.5,0-0.8,0h0c-0.5,0-1,0.1-1.5,0.1h0l-0.4,0.1l-12.1,2.1l-18,3.2l-7.3,1.3
				l-2.1,0.4c-2.2,0.4-4.1,1.6-5.4,3.2c-0.8,0.5-1.6,1-2.3,1.6l-8.1,6.5l-74.6,59.6l-10.1,8.1c-4.2,3.4-6.9,8.2-7.5,13.6
				c-0.6,5.4,0.9,10.7,4.3,15l10.1,12.7c3.4,4.2,8.2,6.9,13.6,7.5c0.8,0.1,1.5,0.1,2.3,0.1c4.6,0,9-1.5,12.6-4.4L99,330l18-14.4
				l7.3-5.9l18-14.4l0.3-0.3c0.8-0.6,1.5-1.3,2.1-2c1.9-0.9,3.4-2.5,4.3-4.6l15.7-37.4c0.1-0.1,0.1-0.2,0.1-0.4
				c0.1-0.2,0.1-0.4,0.2-0.6c0-0.1,0.1-0.2,0.1-0.3c0.1-0.2,0.1-0.4,0.1-0.6c0.1-0.2,0.1-0.5,0.1-0.8c0-0.1,0-0.2,0-0.3
				c0-0.2,0-0.3,0-0.4c0,0,0,0,0,0C165.4,247.2,165.3,246.7,165.2,246.2z M38.5,355.2c-0.6,0.5-1.4,0.5-1.7,0.5
				c-0.4,0-1.1-0.2-1.6-0.8l-10.1-12.7c-0.5-0.6-0.5-1.3-0.5-1.7c0-0.4,0.2-1,0.9-1.6l3.1-2.5l13,16.3L38.5,355.2z M141.2,260.7
				l-7.2,17.2l-0.6,1.5l0,0c-0.1,0.1-0.1,0.1-0.2,0.2l-1.5,1.2l0,0c-0.1,0.1-0.1,0.1-0.2,0.2l-7.1,5.7l-7.3,5.9l-18,14.4l-43.2,34.5
				l-13.1-16.3l56.3-45l18-14.4l3.1-2.5c0.1-0.1,0.1-0.1,0.2-0.1h0l1.8-0.3l2.3-0.4l16-2.8l1.4-0.2L141.2,260.7z"/>
		</g>
		<g>
			<linearGradient id="SVGID_9_" gradientUnits="userSpaceOnUse" x1="-28.4459" y1="75.4614" x2="450.0302" y2="499.9402">
				<stop  offset="0" style="stop-color:#32B2AB"/>
				<stop  offset="1" style="stop-color:#F6DA42"/>
			</linearGradient>
			<path class="st82" d="M156.4,238.7c-0.5,0-1,0.1-1.5,0.1C155.3,238.7,155.9,238.7,156.4,238.7z"/>
			<linearGradient id="SVGID_10_" gradientUnits="userSpaceOnUse" x1="-28.796" y1="75.8561" x2="449.6801" y2="500.3348">
				<stop  offset="0" style="stop-color:#32B2AB"/>
				<stop  offset="1" style="stop-color:#F6DA42"/>
			</linearGradient>
			<path class="st83" d="M165.4,247.7c0,0.2,0,0.3,0,0.4c0,0.1,0,0.2,0,0.3c0-0.1,0-0.2,0-0.3C165.4,248,165.4,247.8,165.4,247.7z"
				/>
		</g>
	</g>
	<g>
		<g>
			<linearGradient id="SVGID_11_" gradientUnits="userSpaceOnUse" x1="78.6784" y1="-45.2901" x2="557.1545" y2="379.1887">
				<stop  offset="0" style="stop-color:#32B2AB"/>
				<stop  offset="1" style="stop-color:#F6DA42"/>
			</linearGradient>
			<path class="st84" d="M362.9,278.8L362.9,278.8c0.3-0.3,0.6-0.6,0.9-0.9C363.6,278.2,363.2,278.5,362.9,278.8z M376.2,266.2
				c1-0.9,2-1.9,3-2.9C378.1,264.3,377.2,265.3,376.2,266.2z M389.5,160.9c-0.6,0-1.2,0-1.8,0.1
				C388.3,160.9,388.9,160.9,389.5,160.9c1,0,1.9,0.1,2.9,0.1C391.4,161,390.4,160.9,389.5,160.9z M392.2,250.4c1-1.1,2.1-2.1,3-3.2
				C394.3,248.3,393.3,249.4,392.2,250.4z M423.9,241.5c0.8-1.1,1.6-2.1,2.3-3.1C425.4,239.4,424.7,240.4,423.9,241.5z"/>
			<linearGradient id="SVGID_12_" gradientUnits="userSpaceOnUse" x1="72.7775" y1="-38.6384" x2="551.2535" y2="385.8403">
				<stop  offset="0" style="stop-color:#32B2AB"/>
				<stop  offset="1" style="stop-color:#F6DA42"/>
			</linearGradient>
			<path class="st85" d="M431,164c-0.4-0.5-0.8-1.1-1.3-1.6c-1.4-1.7-2.9-3.2-4.4-4.7c-0.6-0.6-1.3-1.2-1.9-1.7
				c-0.5-0.4-1-0.9-1.5-1.3c-0.3-0.2-0.6-0.5-0.9-0.7c-0.9-0.7-1.8-1.3-2.6-1.9c-0.4-0.2-0.7-0.5-1.1-0.7c-0.6-0.4-1.2-0.7-1.8-1.1
				c-0.5-0.3-1-0.6-1.5-0.9c-1.1-0.6-2.2-1.2-3.4-1.7c-0.4-0.2-0.8-0.3-1.2-0.5c-0.4-0.2-0.8-0.3-1.2-0.5c-1.1-0.5-2.2-0.8-3.4-1.2
				c-4.9-1.6-10.1-2.5-15.4-2.5c-2.8,0-5.4,0.2-7.9,0.6c-1,0.2-2.1,0.3-3.1,0.5c-1,0.2-2,0.4-2.9,0.7c-0.8,0.2-1.5,0.4-2.2,0.7
				c-0.4,0.1-0.7,0.2-1.1,0.4c-0.6,0.2-1.2,0.4-1.8,0.7c-0.8,0.3-1.6,0.6-2.3,0.9c-0.7,0.3-1.3,0.6-1.9,0.9
				c-6.1,2.9-10.8,6.6-14.3,9.8c-0.4,0.3-0.7,0.7-1.1,1c-0.2,0.2-0.3,0.3-0.5,0.5c-3.6,3.5-5.4,6.2-5.4,6.2s-15.2-22.9-44.6-22.9
				c-29.4,0-55.8,26.8-52.4,59.6c0.2,2.2-2.8,22.4,45.6,69.3c20.6,20,33,31.3,40.4,37.6c3.2,2.7,7.1,4.1,11,4.1c1,0,1.9-0.1,2.9-0.2
				c1.9-0.3,3.8-1,5.6-2c0,0,0,0,0,0c0.9-0.5,1.7-1.1,2.5-1.8c0.5-0.4,0.9-0.8,1.4-1.2h0c0.2-0.2,0.4-0.3,0.6-0.5
				c0.4-0.3,0.8-0.7,1.2-1.1c0.2-0.2,0.4-0.4,0.6-0.6c7.6-6.8,19.2-17.4,36.6-34.3c12.1-11.7,21-21.8,27.5-30.3
				c0.8-1.1,1.6-2.1,2.3-3.1c0.4-0.5,0.7-1,1.1-1.5c0.7-1,1.4-2,2-2.9c0.6-0.9,1.2-1.9,1.8-2.8c0.9-1.3,1.7-2.6,2.4-3.9
				c7.3-12.5,8.2-19.9,8.4-23.1c0-0.8,0-1.4,0-1.7C443.5,187.9,439,174.4,431,164z M424,200.7c-0.1,1-0.1,1.8-0.1,2.3
				c0,0,0,0.1,0,0.1c0,0.1,0,0.1,0,0.2c0,0.1,0,0.1,0,0.2c0,0.1,0,0.2,0,0.4c0,0.1,0,0.2,0,0.2c0,0.2-0.1,0.5-0.1,0.8
				c0,0.2-0.1,0.4-0.1,0.7c-0.1,0.2-0.1,0.5-0.2,0.8c-0.1,0.2-0.1,0.5-0.2,0.7c-0.1,0.5-0.3,1.1-0.6,1.7c-0.1,0.3-0.2,0.6-0.4,0.9
				c-0.3,0.8-0.7,1.8-1.2,2.8c-0.2,0.3-0.3,0.7-0.5,1c-0.3,0.5-0.6,1.1-0.9,1.7c-0.6,1.2-1.3,2.4-2.1,3.8c-0.4,0.7-0.8,1.4-1.3,2.1
				c-0.2,0.4-0.5,0.8-0.8,1.2c-0.5,0.8-1.1,1.7-1.7,2.6c-0.3,0.4-0.6,0.9-0.9,1.3c-0.8,1.1-1.6,2.2-2.5,3.4
				c-0.6,0.8-1.2,1.6-1.9,2.4c-0.6,0.8-1.3,1.7-2,2.5c-2.8,3.4-6,7.2-9.8,11.2c-0.5,0.5-0.9,1-1.4,1.5c-1,1-2,2.1-3,3.2
				c-0.5,0.5-1,1.1-1.6,1.6c-1.1,1.1-2.2,2.2-3.3,3.3c-1.1,1.1-2.3,2.3-3.5,3.5c-1.6,1.5-3.1,3-4.7,4.5c-1,1-2,1.9-3,2.9
				c-0.7,0.7-1.4,1.4-2.1,2c-1.8,1.7-3.5,3.3-5.1,4.9c-0.8,0.8-1.7,1.6-2.5,2.3c-0.9,0.8-1.8,1.7-2.6,2.4c-0.3,0.3-0.6,0.6-0.9,0.9
				c-7.2,6.7-13.2,12.2-18,16.3c-8.9-7.7-22-19.9-38.9-36.3c-38.9-37.7-40.1-54.1-40.1-55.8c0-0.5,0-1.3-0.1-2.3
				c-1.1-10.3,2.2-20.2,9.2-28c6.8-7.5,16-11.8,25.3-11.8c18.4,0,28.6,13.5,29.6,14.9c3.3,5.1,8.8,8.1,14.8,8.1h0.2
				c6,0,11.6-3.2,14.9-8.2c0,0,1-1.4,2.9-3.4c0.1-0.1,0.2-0.3,0.4-0.4c0.2-0.2,0.5-0.5,0.8-0.8c0.2-0.2,0.4-0.3,0.5-0.5
				c0.2-0.2,0.3-0.3,0.5-0.4c0.2-0.1,0.3-0.3,0.5-0.4c0.2-0.2,0.3-0.3,0.5-0.4c0.2-0.1,0.4-0.3,0.6-0.4c0.4-0.3,0.8-0.6,1.2-0.9
				c0.2-0.2,0.4-0.3,0.6-0.5c0.4-0.3,0.8-0.5,1.2-0.8c0,0,0,0,0.1,0c0,0,0,0,0,0c0.2-0.2,0.5-0.3,0.7-0.4c0.2-0.2,0.5-0.3,0.7-0.4
				c0.2-0.1,0.5-0.3,0.7-0.4c0,0,0,0,0,0c0.2-0.1,0.5-0.3,0.8-0.4c0.3-0.2,0.6-0.3,0.9-0.5c0.3-0.2,0.6-0.3,1-0.5
				c0.6-0.3,1.1-0.5,1.7-0.7c0.1-0.1,0.3-0.1,0.4-0.2c0.5-0.2,1.1-0.4,1.6-0.6c0.3-0.1,0.6-0.2,0.9-0.3c0.4-0.1,0.8-0.2,1.2-0.3
				c0.3-0.1,0.7-0.2,1-0.2c0.2,0,0.4-0.1,0.6-0.1c0.3-0.1,0.5-0.1,0.8-0.2c0.5-0.1,1.1-0.2,1.6-0.3c0.8-0.1,1.7-0.2,2.5-0.3
				c0.3,0,0.6,0,0.9-0.1c0.6,0,1.2-0.1,1.8-0.1c1,0,1.9,0.1,2.9,0.1c1,0.1,2.1,0.2,3.1,0.4c0.1,0,0.2,0,0.3,0.1
				c0.5,0.1,1,0.2,1.5,0.3c0.3,0.1,0.6,0.2,0.8,0.2c0.3,0.1,0.6,0.2,0.9,0.3c0.6,0.2,1.1,0.4,1.7,0.6c0.8,0.3,1.7,0.7,2.5,1
				c0.3,0.1,0.6,0.3,0.8,0.4c0.5,0.3,1.1,0.5,1.6,0.8c0.4,0.2,0.7,0.4,1.1,0.6c0.4,0.2,0.8,0.5,1.2,0.8c2.5,1.7,4.9,3.7,7,6.1
				c0.2,0.2,0.4,0.4,0.6,0.6c0.1,0.1,0.1,0.1,0.2,0.2c0.2,0.2,0.4,0.5,0.6,0.7c0.3,0.3,0.6,0.7,0.8,1c4,5.4,6.5,11.6,7.1,18.2
				C424.3,195.9,424.3,198.3,424,200.7z"/>
		</g>
	</g>
	<g>
		<linearGradient id="SVGID_13_" gradientUnits="userSpaceOnUse" x1="58.3172" y1="-22.3387" x2="536.7933" y2="402.1401">
			<stop  offset="0" style="stop-color:#32B2AB"/>
			<stop  offset="1" style="stop-color:#F6DA42"/>
		</linearGradient>
		<path class="st86" d="M254.9,115.2c-7.4-13.9-20.3-22.3-32.4-22.3c-3.9,0-7.8,0.9-11.3,2.8c-14.4,7.6-18.1,28.7-8.3,47.1
			c7.4,13.9,20.3,22.3,32.4,22.3c3.9,0,7.8-0.9,11.3-2.8C261,154.7,264.7,133.6,254.9,115.2z M240.1,150c-1.4,0.7-3,1.1-4.7,1.1
			c-3.2,0-6.8-1.2-10.1-3.5c-4-2.7-7.4-6.6-9.9-11.3c-6.6-12.4-3.9-24.8,2.5-28.2c1.4-0.7,3-1.1,4.7-1.1c3.2,0,6.8,1.2,10.1,3.5
			c4,2.7,7.4,6.6,9.9,11.3C249.1,134.1,246.5,146.5,240.1,150z"/>
	</g>
	<g>
		<linearGradient id="SVGID_14_" gradientUnits="userSpaceOnUse" x1="110.5938" y1="-81.2654" x2="589.0699" y2="343.2134">
			<stop  offset="0" style="stop-color:#32B2AB"/>
			<stop  offset="1" style="stop-color:#F6DA42"/>
		</linearGradient>
		<path class="st87" d="M292,52.8c8.4,0,19.1,10.1,21.7,26.4c1.3,8.5,0,17-3.5,23.3c-1.6,2.9-5.2,7.9-10.8,8.8
			c-0.6,0.1-1.2,0.1-1.8,0.1c-8.4,0-19.1-10.1-21.7-26.4c-1.3-8.5,0-17,3.5-23.3c1.6-2.9,5.2-7.9,10.8-8.8
			C290.8,52.9,291.4,52.8,292,52.8C292,52.8,292,52.8,292,52.8L292,52.8z M292,34.8c-1.5,0-3,0.1-4.5,0.3
			c-20.2,3.1-33.4,26.7-29.3,52.7c3.7,24,20.9,41.6,39.4,41.6c1.5,0,3-0.1,4.5-0.3c20.2-3.1,33.4-26.7,29.3-52.7
			C327.7,52.4,310.6,34.8,292,34.8L292,34.8z"/>
	</g>
	<g>
		<linearGradient id="SVGID_15_" gradientUnits="userSpaceOnUse" x1="154.7512" y1="-131.0399" x2="633.2272" y2="293.4389">
			<stop  offset="0" style="stop-color:#32B2AB"/>
			<stop  offset="1" style="stop-color:#F6DA42"/>
		</linearGradient>
		<path class="st88" d="M397.9,34.8v18c0.6,0,1.2,0,1.7,0.1c5.7,0.9,9.2,5.9,10.8,8.8c3.5,6.4,4.8,14.9,3.5,23.3
			c-2.5,16.3-13.2,26.4-21.7,26.4c-0.6,0-1.2,0-1.7-0.1c-5.7-0.9-9.2-5.9-10.8-8.8c-3.5-6.4-4.8-14.9-3.5-23.3
			c2.5-16.3,13.2-26.4,21.7-26.4L397.9,34.8L397.9,34.8z M397.9,34.8c-18.6,0-35.7,17.6-39.4,41.6c-4,25.9,9.1,49.5,29.4,52.7
			c1.5,0.2,3,0.3,4.5,0.3c18.6,0,35.7-17.6,39.4-41.6c4-25.9-9.1-49.5-29.4-52.7C400.9,35,399.4,34.8,397.9,34.8L397.9,34.8z"/>
	</g>
	<g>
		<linearGradient id="SVGID_16_" gradientUnits="userSpaceOnUse" x1="160.4874" y1="-137.5058" x2="638.9634" y2="286.973">
			<stop  offset="0" style="stop-color:#32B2AB"/>
			<stop  offset="1" style="stop-color:#F6DA42"/>
		</linearGradient>
		<path class="st89" d="M478.6,95.7c-3.5-1.9-7.4-2.8-11.3-2.8c-12.1,0-25,8.4-32.4,22.3c-9.8,18.4-6.1,39.5,8.3,47.1
			c3.5,1.9,7.4,2.8,11.3,2.8c12.1,0,25-8.4,32.4-22.2C496.7,124.4,493,103.3,478.6,95.7z M474.6,136.3c-2.5,4.7-5.9,8.6-9.9,11.3
			c-3.4,2.3-7,3.5-10.1,3.5c-1.7,0-3.3-0.4-4.7-1.1c-4.1-2.2-5.5-6.9-6-9.6c-1-5.8,0.3-12.5,3.5-18.6c2.5-4.7,5.9-8.6,9.9-11.3
			c3.4-2.3,7-3.5,10.1-3.5c1.7,0,3.3,0.4,4.7,1.1c4.1,2.2,5.5,7,6,9.6C479,123.4,477.8,130.2,474.6,136.3z"/>
	</g>
</g>
</svg>
