<?xml version="1.0" encoding="utf-8"?>
<!-- Generator: Adobe Illustrator 21.0.2, SVG Export Plug-In . SVG Version: 6.00 Build 0)  -->
<svg version="1.1" id="Layer_1" xmlns="http://www.w3.org/2000/svg" xmlns:xlink="http://www.w3.org/1999/xlink" x="0px" y="0px"
	 viewBox="0 0 500 500" style="enable-background:new 0 0 500 500;" xml:space="preserve">
<style type="text/css">
	.st0{fill:url(#SVGID_1_);}
	.st1{fill:url(#SVGID_2_);stroke:#FFFFFF;stroke-width:2;stroke-miterlimit:10;}
	.st2{fill:url(#SVGID_3_);}
	.st3{fill:url(#SVGID_4_);stroke:#FFFFFF;stroke-width:2;stroke-miterlimit:10;}
	.st4{fill:#623113;}
	.st5{fill:#FFFFFF;}
	.st6{fill:#975A30;}
	.st7{fill:#E25B42;}
	.st8{fill:#0F365A;}
	.st9{fill:#F2F2F4;}
	.st10{fill:#F3FFFF;}
	.st11{fill:#D7553E;}
	.st12{fill:#404042;}
	.st13{fill:#F2A500;}
	.st14{fill:#C1C1C1;}
	.st15{fill:#513928;}
	.st16{fill:#1A1F21;}
	.st17{fill:#75C4B7;}
	.st18{fill:none;stroke:#0F365A;stroke-width:2;stroke-linecap:round;stroke-linejoin:round;stroke-miterlimit:10;}
	
		.st19{fill:none;stroke:#0F365A;stroke-width:2;stroke-linecap:round;stroke-linejoin:round;stroke-miterlimit:10;stroke-dasharray:8;}
	.st20{fill:#CCDAE4;}
	.st21{fill:#195E5C;}
	.st22{fill:#EAD9A4;}
	.st23{fill:#EA594B;}
	.st24{fill:#EA806B;}
	.st25{fill:#DA6E5A;}
	.st26{fill:#D3433B;}
	.st27{fill:#D5B564;}
	.st28{fill:#EF8B1E;}
	.st29{fill:#8CCBC4;}
	.st30{fill:#B2E0DA;}
	.st31{fill:#C97418;}
	.st32{fill:#1C344D;}
	.st33{fill:#D03823;}
	.st34{fill:#008A45;}
	.st35{fill:#84BE3F;}
	.st36{fill:#FF733F;}
	.st37{fill:#D07716;}
	.st38{fill:#F3A83B;}
	.st39{fill:#8B3454;}
	.st40{fill:#9F3E5C;}
	.st41{fill:#7F2A4B;}
	.st42{fill:#DA8A29;}
	.st43{fill:#98D8A1;}
	.st44{fill:#85C68B;}
	.st45{fill:#00A59F;}
	.st46{fill:#12BEB5;}
	.st47{fill:#038B84;}
	.st48{fill:#C97315;}
	.st49{fill:#7FC1B8;}
	.st50{fill:#639E97;}
	.st51{fill:#0EA08E;}
	.st52{fill:#5EAFA4;}
	.st53{fill:#7EC6BB;}
	.st54{fill:none;stroke:#176361;stroke-width:1.4192;}
	.st55{fill:#7AC143;}
	.st56{fill:#FFCA80;}
	.st57{fill:#E0AB67;}
	.st58{fill:#CE6654;}
	.st59{fill:#CE7516;}
	.st60{fill:#E95A24;}
	.st61{fill:#119D92;}
	.st62{fill:#BEEBEC;}
	.st63{fill:none;stroke:#87E2DC;stroke-width:2.8597;stroke-linecap:round;}
	.st64{fill:none;stroke:#EA594B;stroke-width:2.8597;stroke-linecap:round;}
	.st65{fill:#4A99A3;}
	.st66{fill:none;stroke:#4A99A3;stroke-width:8;stroke-linecap:round;stroke-linejoin:round;stroke-miterlimit:10;}
	.st67{fill:#D74D57;}
	.st68{fill:#795134;}
	.st69{fill:#EA6E26;}
	.st70{fill:#DAD4C4;}
	.st71{fill:#F5B317;}
	.st72{fill:#109098;}
	.st73{fill:#61A646;}
	.st74{fill:none;stroke:#5AC7D9;stroke-width:6;stroke-linecap:round;stroke-linejoin:round;stroke-miterlimit:10;}
	.st75{fill:#5AC7D9;}
	.st76{fill:#5AC7D9;stroke:#5AC7D9;stroke-width:7.2813;stroke-linecap:round;stroke-linejoin:round;stroke-miterlimit:10;}
	.st77{fill:none;stroke:#5AC7D9;stroke-width:7.2813;stroke-linecap:round;stroke-linejoin:round;stroke-miterlimit:10;}
	.st78{fill:url(#SVGID_5_);}
	.st79{fill:url(#SVGID_6_);}
	.st80{fill:url(#SVGID_7_);}
	.st81{fill:url(#SVGID_8_);}
	.st82{fill:url(#SVGID_9_);}
	.st83{fill:url(#SVGID_10_);}
	.st84{fill:url(#SVGID_11_);}
	.st85{fill:url(#SVGID_12_);}
	.st86{fill:url(#SVGID_13_);}
	.st87{fill:url(#SVGID_14_);}
	.st88{fill:url(#SVGID_15_);}
	.st89{fill:url(#SVGID_16_);}
	.st90{fill:url(#SVGID_17_);}
	.st91{fill:url(#SVGID_18_);}
	.st92{fill:url(#SVGID_19_);}
	.st93{fill:url(#SVGID_20_);}
	.st94{fill:url(#SVGID_21_);}
	
		.st95{fill-rule:evenodd;clip-rule:evenodd;fill:#5AC7D9;stroke:#5AC7D9;stroke-width:6;stroke-linecap:round;stroke-linejoin:round;stroke-miterlimit:10;}
	.st96{fill:url(#SVGID_130_);}
	.st97{fill:url(#SVGID_131_);}
	.st98{fill:url(#SVGID_132_);}
	.st99{fill:url(#SVGID_133_);}
	.st100{fill:url(#SVGID_134_);}
	.st101{fill:url(#SVGID_135_);}
	.st102{fill:url(#SVGID_136_);}
	.st103{fill:url(#SVGID_137_);}
	.st104{fill:url(#SVGID_138_);}
	.st105{fill:url(#SVGID_139_);}
	.st106{fill:url(#SVGID_140_);}
	.st107{fill:url(#SVGID_141_);}
	.st108{fill:url(#SVGID_142_);}
	.st109{fill:url(#SVGID_143_);}
	.st110{fill:url(#SVGID_144_);}
	.st111{fill:url(#SVGID_145_);}
	.st112{fill:none;stroke:#5AC7D9;stroke-width:6;stroke-miterlimit:10;}
	.st113{fill:#231F20;}
	.st114{fill:url(#SVGID_146_);}
	.st115{fill:url(#SVGID_147_);}
	.st116{fill:url(#SVGID_148_);}
	.st117{fill:url(#SVGID_149_);}
	.st118{fill:url(#SVGID_150_);}
	.st119{fill:url(#SVGID_151_);}
	.st120{fill:url(#SVGID_152_);}
	.st121{fill:url(#SVGID_153_);}
	.st122{fill:url(#SVGID_154_);}
	.st123{fill:url(#SVGID_155_);}
	.st124{fill:url(#SVGID_156_);}
	.st125{fill:url(#SVGID_157_);}
	.st126{fill:url(#SVGID_158_);}
	.st127{fill:url(#SVGID_159_);}
	.st128{fill:url(#SVGID_160_);}
	.st129{fill:url(#SVGID_161_);}
	.st130{fill:url(#SVGID_162_);}
	.st131{fill:url(#SVGID_163_);}
	.st132{fill:url(#SVGID_164_);}
	.st133{fill:url(#SVGID_165_);}
	.st134{fill:url(#SVGID_166_);}
	.st135{fill:url(#SVGID_167_);}
	.st136{fill:url(#SVGID_168_);}
	.st137{fill:url(#SVGID_169_);}
	.st138{fill:url(#SVGID_170_);}
	.st139{fill:url(#SVGID_171_);}
	.st140{fill:url(#SVGID_172_);}
	.st141{fill:url(#SVGID_173_);}
	.st142{fill:url(#SVGID_174_);}
	.st143{fill:url(#SVGID_175_);}
	.st144{fill:url(#SVGID_176_);}
	.st145{fill:url(#SVGID_177_);}
	.st146{fill:url(#SVGID_178_);}
	.st147{fill:url(#SVGID_179_);}
	.st148{fill:url(#SVGID_180_);}
	.st149{fill:url(#SVGID_181_);}
</style>
<g>
	<g>
		<linearGradient id="SVGID_1_" gradientUnits="userSpaceOnUse" x1="85.4788" y1="15.2282" x2="467.2087" y2="418.7713">
			<stop  offset="0" style="stop-color:#32B2AB"/>
			<stop  offset="1" style="stop-color:#F6DA42"/>
		</linearGradient>
		<path class="st0" d="M404.6,216.6c0-0.2-0.1-0.5-0.1-0.7l-22-98.2c-0.8-3.7-4.2-6.4-8-6.4h-43.7c-4.1-41.2-39-73.4-81.2-73.4
			c-42.2,0-77.1,32.2-81.2,73.4h-46.3c-3.8,0-7.1,2.7-8,6.4l-22,98.2c0,0.2-0.1,0.5-0.1,0.7c-1.4,10.1,1,19.2,6.7,25.7
			c5.5,6.3,13.9,9.8,23.4,9.8c14.3,0,25.8-4.4,33.4-12.6c0,0.1,0.1,0.1,0.1,0.2c6.8,7.8,18.4,12.5,31,12.5c15.2,0,27.1-6,33.6-16.3
			c6.1,9.8,16.9,16.3,29.3,16.3c11.5,0,21.7-5.7,28-14.4c6.8,9.2,18.1,14.4,32.3,14.4c12.7,0,24.3-4.7,31-12.5l0.1-0.2
			c7.7,8.2,19.1,12.6,33.4,12.6c9.6,0,17.9-3.5,23.4-9.8C403.6,235.8,406,226.7,404.6,216.6z M149.3,216.4
			c-2.5,12.9-11.7,19.5-27.2,19.5c-3.4,0-8-0.7-11.1-4.2c-2.5-2.9-3.5-7.2-2.8-12.5l20.5-91.5h32.7L149.3,216.4z M209.6,217.4
			c-1.4,15.2-13.3,18.4-22.9,18.4c-7.7,0-15.1-2.7-18.7-6.8c-2.3-2.7-3.1-6-2.5-10.2l9.1-67.2c7.3,17,20.2,31,36.5,39.8L209.6,217.4
			z M267.7,217.7c0,10-8.1,18.1-18.1,18.1s-18.1-8.1-18.1-18.1v-18.7c5.8,1.3,11.9,2,18.1,2c6.2,0,12.3-0.7,18.1-2V217.7z
			 M284.1,174.8c-4.8,3-10,5.4-15.4,7.1c-0.3,0.1-0.6,0.2-0.9,0.3c-5.8,1.7-11.8,2.6-18.1,2.6c-6.3,0-12.4-0.9-18.1-2.6
			c-1.2-0.3-2.3-0.7-3.4-1.1c-4.6-1.6-8.9-3.7-12.9-6.2c-1-0.6-2-1.3-3-2c-14.7-10.3-24.9-26.5-27.2-45.2c-0.3-2.7-0.5-5.4-0.5-8.2
			s0.2-5.5,0.5-8.2c4-32.1,31.5-57,64.7-57c33.2,0,60.7,24.9,64.7,57c0.3,2.7,0.5,5.4,0.5,8.2s-0.2,5.5-0.5,8.2
			c-2.5,19.7-13.7,36.6-29.7,46.8C284.4,174.6,284.3,174.7,284.1,174.8z M328.6,229c-3.6,4.1-10.9,6.8-18.7,6.8
			c-9.7,0-21.5-3.2-22.9-18.4l-1.4-24.8c16-7.9,29-20.8,37-36.8l8.5,62.9c0,0,0,0,0,0.1c0,0.1,0,0.1,0,0.2
			C331.7,223.1,330.9,226.4,328.6,229z M385.6,231.6c-3.1,3.5-7.7,4.2-11.1,4.2c-15.5,0-24.7-6.5-27.2-19.5l-12-88.7H368l20.5,91.5
			C389.1,224.4,388.1,228.7,385.6,231.6z"/>
	</g>
	<g>
		<g>
			<g>
				<linearGradient id="SVGID_2_" gradientUnits="userSpaceOnUse" x1="123.0879" y1="-20.348" x2="504.8179" y2="383.1951">
					<stop  offset="0" style="stop-color:#32B2AB"/>
					<stop  offset="1" style="stop-color:#F6DA42"/>
				</linearGradient>
				<path style="fill:url(#SVGID_2_);" d="M248.3,98.5c0,5.1-1.7,9.7-4.3,12.8c-2.2,2.7-5.2,4.3-8.4,4.3c-3.2,0-6.2-1.6-8.5-4.3
					c-2.6-3.1-4.3-7.7-4.3-12.8c0-9.4,5.7-17.1,12.8-17.1C242.5,81.3,248.3,89,248.3,98.5z"/>
			</g>
			<g>
				<linearGradient id="SVGID_3_" gradientUnits="userSpaceOnUse" x1="107.987" y1="-6.0633" x2="489.717" y2="397.4798">
					<stop  offset="0" style="stop-color:#32B2AB"/>
					<stop  offset="1" style="stop-color:#F6DA42"/>
				</linearGradient>
				<path class="st2" d="M271.4,156.6c-1.2,0.7-2.4,1-3.7,1h-0.1c-0.1,0-0.2,0-0.3,0c-2.9-0.1-5.7-1.9-8.6-3.8
					c-1.9-1.3-4-2.6-6.3-3.6c-0.3-0.1-1.8-0.3-3.9-0.3c-1.8,0-2.9,0.1-3.1,0.2c-2.4,1-4.5,2.3-6.5,3.5c-2.6,1.6-5,3.1-7.4,3.5
					c-0.5,0.1-1.1,0.2-1.6,0.2c-0.2,0-0.3,0-0.5,0c-1.3-0.1-2.6-0.5-3.7-1.2c-3.2-2.1-5.1-5.7-5.3-10.2c-0.2-4.3,1.1-8.9,3.8-12.9
					c0.3-0.4,0.5-0.7,0.8-1.1c0.3-0.3,0.5-0.6,0.6-0.8c1.2-2.5,3.1-5,5.7-7.2c4.1-3.4,10-6,17.6-6h0.5c6.7,0.1,12,2.1,15.9,4.9
					c3.6,2.5,6.1,5.7,7.4,8.6c0.1,0.3,0.4,0.6,0.6,1c0.3,0.4,0.6,0.8,0.9,1.3C279.3,142.5,278,152.8,271.4,156.6z"/>
			</g>
			<g>
				<linearGradient id="SVGID_4_" gradientUnits="userSpaceOnUse" x1="137.4108" y1="-33.8966" x2="519.1407" y2="369.6465">
					<stop  offset="0" style="stop-color:#32B2AB"/>
					<stop  offset="1" style="stop-color:#F6DA42"/>
				</linearGradient>
				<path style="fill:url(#SVGID_4_);" d="M275.4,98.5c0,5.1-1.7,9.7-4.3,12.8c-0.1,0.1-0.2,0.3-0.4,0.4c-1.2,1.3-2.6,2.3-4,3
					c-1.3,0.6-2.6,0.9-4,0.9c-3.2,0-6.2-1.6-8.5-4.3c-2.6-3.1-4.3-7.7-4.3-12.8c0-9.4,5.7-17.1,12.8-17.1
					C269.7,81.3,275.4,89,275.4,98.5z"/>
			</g>
			<g>
				<linearGradient id="SVGID_5_" gradientUnits="userSpaceOnUse" x1="137.6644" y1="-34.1365" x2="519.3943" y2="369.4066">
					<stop  offset="0" style="stop-color:#32B2AB"/>
					<stop  offset="1" style="stop-color:#F6DA42"/>
				</linearGradient>
				<path class="st78" d="M293.7,120.1c0,2.8-0.6,5.4-1.7,7.5c-1.7,3.4-4.5,5.6-7.9,5.8c-0.2,0-0.3,0-0.5,0c-0.4,0-0.9,0-1.3-0.1
					c-5-0.8-8.7-6.3-8.7-13.2c0-3.4,0.9-6.5,2.5-8.8h0c1.8-2.8,4.5-4.5,7.6-4.5c3.1,0,5.8,1.7,7.6,4.5
					C292.7,113.6,293.7,116.7,293.7,120.1z"/>
			</g>
			<g>
				<linearGradient id="SVGID_6_" gradientUnits="userSpaceOnUse" x1="101.772" y1="-0.1842" x2="483.5019" y2="403.3589">
					<stop  offset="0" style="stop-color:#32B2AB"/>
					<stop  offset="1" style="stop-color:#F6DA42"/>
				</linearGradient>
				<path class="st79" d="M225.6,120.1c0,7.5-4.4,13.3-10.1,13.3c-0.2,0-0.3,0-0.5,0c-0.3,0-0.5,0-0.8-0.1c-3-0.5-5.5-2.6-7.1-5.7
					c-1.1-2.1-1.7-4.7-1.7-7.5c0-3.4,0.9-6.5,2.5-8.8c1.8-2.8,4.5-4.5,7.6-4.5c3.1,0,5.8,1.7,7.6,4.5h0
					C224.7,113.6,225.6,116.7,225.6,120.1z"/>
			</g>
		</g>
	</g>
	<linearGradient id="SVGID_7_" gradientUnits="userSpaceOnUse" x1="-0.8051" y1="96.8482" x2="380.9248" y2="500.3913">
		<stop  offset="0" style="stop-color:#32B2AB"/>
		<stop  offset="1" style="stop-color:#F6DA42"/>
	</linearGradient>
	<path class="st80" d="M309,328.3h-80.7c-0.4-1.2-0.8-2.4-1.4-3.6l3-38.4c0.1-1.7-0.7-3.3-2.2-4.1c-1.5-0.8-3.3-0.8-4.6,0.2
		l-25.8,18c-4.3-1.2-8.8-1.8-13.5-1.8c-5.5,0-10.8,0.8-15.8,2.5l-26.3-18.1c-1.4-0.9-3.1-1-4.6-0.2c-1.4,0.8-2.3,2.4-2.2,4l2.7,52.7
		c0.1,22.4,20.7,40.6,46.1,40.6c2.6,0,5.2-0.2,7.6-0.6c6.1,8.7,16.1,14,26.8,14H309c18,0,32.6-14.6,32.6-32.6v-0.1
		C341.6,342.9,326.9,328.3,309,328.3z"/>
	<g>
		<linearGradient id="SVGID_8_" gradientUnits="userSpaceOnUse" x1="18.0967" y1="78.968" x2="399.8267" y2="482.5111">
			<stop  offset="0" style="stop-color:#32B2AB"/>
			<stop  offset="1" style="stop-color:#F6DA42"/>
		</linearGradient>
		<path class="st81" d="M317,424.7c-18,0-43.8-7.9-45-8.3c-2.3-0.7-3.6-3.1-2.9-5.4c0.7-2.3,3.1-3.6,5.4-2.9
			c0.3,0.1,31.5,9.6,47.2,7.6c8.9-1.1,19.7-9.1,25.1-18.6c2.8-4.9,5.5-12.2,2.4-19.8c-6.8-16.4-13.5-18.2-13.5-18.2
			c0.1,0,0.2,0,0.2,0l1.1-8.6c1.9,0.2,11.6,2.5,20.2,23.5c3.5,8.5,2.5,18.3-2.9,27.5c-6.9,11.9-19.9,21.3-31.5,22.8
			C321.1,424.6,319.1,424.7,317,424.7z"/>
	</g>
	<g>
		<linearGradient id="SVGID_9_" gradientUnits="userSpaceOnUse" x1="-34.2792" y1="128.5128" x2="347.4508" y2="532.0559">
			<stop  offset="0" style="stop-color:#32B2AB"/>
			<stop  offset="1" style="stop-color:#F6DA42"/>
		</linearGradient>
		<path class="st82" d="M409.9,462.9c-10.6,0-20.2-5.7-25.4-14.5H115.3c-5.3,8.9-14.8,14.5-25.4,14.5c-16.3,0-29.6-13.3-29.6-29.6
			s13.3-29.6,29.6-29.6c1.8,0,3.6,0.2,5.3,0.5c5.2-17.2,15.4-46.8,29.1-56c1.3-0.9,2.9-1.4,4.6-1.4h243.9c1.6,0,3.2,0.5,4.6,1.4
			c13.7,9.2,23.9,38.9,29,55.7c1.1-0.1,2.3-0.2,3.4-0.2c16.3,0,29.6,13.3,29.6,29.6S426.2,462.9,409.9,462.9z M110.1,432h279.5
			c3.5,0,6.6,2.2,7.7,5.5c1.8,5.4,6.9,9,12.5,9c7.3,0,13.3-6,13.3-13.3s-6-13.3-13.3-13.3c-1.9,0-3.7,0.4-5.6,1.3
			c-2.2,1-4.7,1-6.8,0c-2.2-1-3.8-2.9-4.5-5.2c-10.6-37-19.1-49.1-23.1-53.1H131.9c-4,4-12.6,16.3-23.3,54c-0.7,2.4-2.5,4.4-4.8,5.3
			c-2.3,0.9-5,0.8-7.2-0.5c-2.1-1.2-4.4-1.9-6.6-1.9c-7.3,0-13.3,6-13.3,13.3s6,13.3,13.3,13.3c5.6,0,10.6-3.6,12.5-9
			C103.5,434.2,106.7,432,110.1,432z"/>
	</g>
</g>
</svg>
