<?xml version="1.0" encoding="utf-8"?>
<!-- Generator: Adobe Illustrator 21.0.2, SVG Export Plug-In . SVG Version: 6.00 Build 0)  -->
<svg version="1.1" id="Layer_1" xmlns="http://www.w3.org/2000/svg" xmlns:xlink="http://www.w3.org/1999/xlink" x="0px" y="0px"
	 viewBox="0 0 500 500" style="enable-background:new 0 0 500 500;" xml:space="preserve">
<style type="text/css">
	.st0{fill:url(#SVGID_1_);}
	.st1{fill:url(#SVGID_2_);stroke:#FFFFFF;stroke-width:2;stroke-miterlimit:10;}
	.st2{fill:url(#SVGID_3_);}
	.st3{fill:url(#SVGID_4_);stroke:#FFFFFF;stroke-width:2;stroke-miterlimit:10;}
	.st4{fill:#623113;}
	.st5{fill:#FFFFFF;}
	.st6{fill:#975A30;}
	.st7{fill:#E25B42;}
	.st8{fill:#0F365A;}
	.st9{fill:#F2F2F4;}
	.st10{fill:#F3FFFF;}
	.st11{fill:#D7553E;}
	.st12{fill:#404042;}
	.st13{fill:#F2A500;}
	.st14{fill:#C1C1C1;}
	.st15{fill:#513928;}
	.st16{fill:#1A1F21;}
	.st17{fill:#75C4B7;}
	.st18{fill:none;stroke:#0F365A;stroke-width:2;stroke-linecap:round;stroke-linejoin:round;stroke-miterlimit:10;}
	
		.st19{fill:none;stroke:#0F365A;stroke-width:2;stroke-linecap:round;stroke-linejoin:round;stroke-miterlimit:10;stroke-dasharray:8;}
	.st20{fill:#CCDAE4;}
	.st21{fill:#195E5C;}
	.st22{fill:#EAD9A4;}
	.st23{fill:#EA594B;}
	.st24{fill:#EA806B;}
	.st25{fill:#DA6E5A;}
	.st26{fill:#D3433B;}
	.st27{fill:#D5B564;}
	.st28{fill:#EF8B1E;}
	.st29{fill:#8CCBC4;}
	.st30{fill:#B2E0DA;}
	.st31{fill:#C97418;}
	.st32{fill:#1C344D;}
	.st33{fill:#D03823;}
	.st34{fill:#008A45;}
	.st35{fill:#84BE3F;}
	.st36{fill:#FF733F;}
	.st37{fill:#D07716;}
	.st38{fill:#F3A83B;}
	.st39{fill:#8B3454;}
	.st40{fill:#9F3E5C;}
	.st41{fill:#7F2A4B;}
	.st42{fill:#DA8A29;}
	.st43{fill:#98D8A1;}
	.st44{fill:#85C68B;}
	.st45{fill:#00A59F;}
	.st46{fill:#12BEB5;}
	.st47{fill:#038B84;}
	.st48{fill:#C97315;}
	.st49{fill:#7FC1B8;}
	.st50{fill:#639E97;}
	.st51{fill:#0EA08E;}
	.st52{fill:#5EAFA4;}
	.st53{fill:#7EC6BB;}
	.st54{fill:none;stroke:#176361;stroke-width:1.4192;}
	.st55{fill:#7AC143;}
	.st56{fill:#FFCA80;}
	.st57{fill:#E0AB67;}
	.st58{fill:#CE6654;}
	.st59{fill:#CE7516;}
	.st60{fill:#E95A24;}
	.st61{fill:#119D92;}
	.st62{fill:#BEEBEC;}
	.st63{fill:none;stroke:#87E2DC;stroke-width:2.8597;stroke-linecap:round;}
	.st64{fill:none;stroke:#EA594B;stroke-width:2.8597;stroke-linecap:round;}
	.st65{fill:#4A99A3;}
	.st66{fill:none;stroke:#4A99A3;stroke-width:8;stroke-linecap:round;stroke-linejoin:round;stroke-miterlimit:10;}
	.st67{fill:#D74D57;}
	.st68{fill:#795134;}
	.st69{fill:#EA6E26;}
	.st70{fill:#DAD4C4;}
	.st71{fill:#F5B317;}
	.st72{fill:#109098;}
	.st73{fill:#61A646;}
	.st74{fill:none;stroke:#5AC7D9;stroke-width:6;stroke-linecap:round;stroke-linejoin:round;stroke-miterlimit:10;}
	.st75{fill:#5AC7D9;}
	.st76{fill:#5AC7D9;stroke:#5AC7D9;stroke-width:7.2813;stroke-linecap:round;stroke-linejoin:round;stroke-miterlimit:10;}
	.st77{fill:none;stroke:#5AC7D9;stroke-width:7.2813;stroke-linecap:round;stroke-linejoin:round;stroke-miterlimit:10;}
	.st78{fill:url(#SVGID_5_);}
	.st79{fill:url(#SVGID_6_);}
	.st80{fill:url(#SVGID_7_);}
	.st81{fill:url(#SVGID_8_);}
	.st82{fill:url(#SVGID_9_);}
	.st83{fill:url(#SVGID_10_);}
	.st84{fill:url(#SVGID_11_);}
	.st85{fill:url(#SVGID_12_);}
	.st86{fill:url(#SVGID_13_);}
	.st87{fill:url(#SVGID_14_);}
	.st88{fill:url(#SVGID_15_);}
	.st89{fill:url(#SVGID_16_);}
	.st90{fill:url(#SVGID_17_);}
	.st91{fill:url(#SVGID_18_);}
	.st92{fill:url(#SVGID_19_);}
	.st93{fill:url(#SVGID_20_);}
	.st94{fill:url(#SVGID_21_);}
	
		.st95{fill-rule:evenodd;clip-rule:evenodd;fill:#5AC7D9;stroke:#5AC7D9;stroke-width:6;stroke-linecap:round;stroke-linejoin:round;stroke-miterlimit:10;}
	.st96{fill:url(#SVGID_130_);}
	.st97{fill:url(#SVGID_131_);}
	.st98{fill:url(#SVGID_132_);}
	.st99{fill:url(#SVGID_133_);}
	.st100{fill:url(#SVGID_134_);}
	.st101{fill:url(#SVGID_135_);}
	.st102{fill:url(#SVGID_136_);}
	.st103{fill:url(#SVGID_137_);}
	.st104{fill:url(#SVGID_138_);}
	.st105{fill:url(#SVGID_139_);}
	.st106{fill:url(#SVGID_140_);}
	.st107{fill:url(#SVGID_141_);}
	.st108{fill:url(#SVGID_142_);}
	.st109{fill:url(#SVGID_143_);}
	.st110{fill:url(#SVGID_144_);}
	.st111{fill:url(#SVGID_145_);}
	.st112{fill:none;stroke:#5AC7D9;stroke-width:6;stroke-miterlimit:10;}
	.st113{fill:#231F20;}
	.st114{fill:url(#SVGID_146_);}
	.st115{fill:url(#SVGID_147_);}
	.st116{fill:url(#SVGID_148_);}
	.st117{fill:url(#SVGID_149_);}
	.st118{fill:url(#SVGID_150_);}
	.st119{fill:url(#SVGID_151_);}
	.st120{fill:url(#SVGID_152_);}
	.st121{fill:url(#SVGID_153_);}
	.st122{fill:url(#SVGID_154_);}
	.st123{fill:url(#SVGID_155_);}
	.st124{fill:url(#SVGID_156_);}
	.st125{fill:url(#SVGID_157_);}
	.st126{fill:url(#SVGID_158_);}
	.st127{fill:url(#SVGID_159_);}
	.st128{fill:url(#SVGID_160_);}
	.st129{fill:url(#SVGID_161_);}
	.st130{fill:url(#SVGID_162_);}
	.st131{fill:url(#SVGID_163_);}
	.st132{fill:url(#SVGID_164_);}
	.st133{fill:url(#SVGID_165_);}
	.st134{fill:url(#SVGID_166_);}
	.st135{fill:url(#SVGID_167_);}
	.st136{fill:url(#SVGID_168_);}
	.st137{fill:url(#SVGID_169_);}
	.st138{fill:url(#SVGID_170_);}
	.st139{fill:url(#SVGID_171_);}
	.st140{fill:url(#SVGID_172_);}
	.st141{fill:url(#SVGID_173_);}
	.st142{fill:url(#SVGID_174_);}
	.st143{fill:url(#SVGID_175_);}
	.st144{fill:url(#SVGID_176_);}
	.st145{fill:url(#SVGID_177_);}
	.st146{fill:url(#SVGID_178_);}
	.st147{fill:url(#SVGID_179_);}
	.st148{fill:url(#SVGID_180_);}
	.st149{fill:url(#SVGID_181_);}
</style>
<linearGradient id="SVGID_1_" gradientUnits="userSpaceOnUse" x1="-149.2836" y1="210.8174" x2="330.6924" y2="650.2954">
	<stop  offset="0" style="stop-color:#32B2AB"/>
	<stop  offset="1" style="stop-color:#F6DA42"/>
</linearGradient>
<polygon class="st0" points="70.3,411.2 87.1,411.2 84.6,425.6 67.7,425.6 "/>
<linearGradient id="SVGID_2_" gradientUnits="userSpaceOnUse" x1="-149.513" y1="211.0679" x2="330.463" y2="650.5459">
	<stop  offset="0" style="stop-color:#32B2AB"/>
	<stop  offset="1" style="stop-color:#F6DA42"/>
</linearGradient>
<path class="st1" d="M77.8,374.2c-24.9,0-45,20.2-45,45c0,24.9,20.1,45,45,45s45-20.1,45-45C122.8,394.3,102.6,374.2,77.8,374.2z
	 M102.6,411.2h-9.3l-2.6,14.3h9.2c1.6,0,2.9,1.2,2.9,2.5s-1.3,2.5-2.9,2.5H89.8L86,451.9c-0.2,1.3-1.4,2.2-3,2.2c-1.7,0-3-1.2-3-2.6
	c0,0,0-0.4,0.1-0.9l3.5-19.9H66.8L63,451.9c-0.2,1.3-1.5,2.2-3,2.2c-1.7,0-3-1.2-3-2.6c0,0,0-0.4,0.1-0.9l3.5-19.9H53
	c-1.6,0-2.9-1.2-2.9-2.5s1.3-2.5,2.9-2.5h8.6l2.5-14.3h-8.5c-1.6,0-2.9-1.2-2.9-2.5s1.3-2.5,2.9-2.5h9.4l3.4-19.7
	c0.2-1.3,1.5-2.2,3-2.2c1.7,0,3,1.2,3,2.6c0,0,0,0.4-0.1,1l-3.1,18.3h16.8l3.4-19.7c0.2-1.3,1.5-2.2,3-2.2c1.7,0,3,1.2,3,2.6
	c0,0,0,0.4-0.1,1l-3.2,18.3h8.4c1.6,0,2.9,1.2,2.9,2.5S104.2,411.2,102.6,411.2z"/>
<linearGradient id="SVGID_3_" gradientUnits="userSpaceOnUse" x1="7.9474" y1="39.0975" x2="487.9234" y2="478.5755">
	<stop  offset="0" style="stop-color:#32B2AB"/>
	<stop  offset="1" style="stop-color:#F6DA42"/>
</linearGradient>
<polygon class="st2" points="415.1,411.2 431.9,411.2 429.3,425.6 412.5,425.6 "/>
<linearGradient id="SVGID_4_" gradientUnits="userSpaceOnUse" x1="7.7193" y1="39.3466" x2="487.6953" y2="478.8246">
	<stop  offset="0" style="stop-color:#32B2AB"/>
	<stop  offset="1" style="stop-color:#F6DA42"/>
</linearGradient>
<path class="st3" d="M422.6,374.2c-24.9,0-45,20.2-45,45c0,24.9,20.2,45,45,45c24.9,0,45-20.1,45-45
	C467.6,394.3,447.4,374.2,422.6,374.2z M447.4,411.2h-9.3l-2.5,14.3h9.2c1.6,0,2.9,1.2,2.9,2.5s-1.3,2.5-2.9,2.5h-10.2l-3.8,21.3
	c-0.2,1.3-1.4,2.2-3,2.2c-1.7,0-3-1.2-3-2.6c0,0,0-0.4,0.1-0.9l3.5-19.9h-16.8l-3.8,21.3c-0.2,1.3-1.4,2.2-3,2.2c-1.7,0-3-1.2-3-2.6
	c0,0,0-0.4,0.1-0.9l3.5-19.9h-7.6c-1.6,0-2.9-1.2-2.9-2.5s1.3-2.5,2.9-2.5h8.6l2.5-14.3h-8.5c-1.6,0-2.9-1.2-2.9-2.5
	s1.3-2.5,2.9-2.5h9.4l3.4-19.7c0.2-1.3,1.4-2.2,3-2.2c1.7,0,3,1.2,3,2.6c0,0,0,0.4-0.1,1l-3.1,18.3h16.8l3.4-19.7
	c0.2-1.3,1.5-2.2,3-2.2c1.7,0,3,1.2,3,2.6c0,0,0,0.4-0.1,1l-3.2,18.3h8.4c1.6,0,2.9,1.2,2.9,2.5S449,411.2,447.4,411.2z"/>
<g>
	<linearGradient id="SVGID_5_" gradientUnits="userSpaceOnUse" x1="-6.1656" y1="54.511" x2="473.8105" y2="493.989">
		<stop  offset="0" style="stop-color:#32B2AB"/>
		<stop  offset="1" style="stop-color:#F6DA42"/>
	</linearGradient>
	<path class="st78" d="M219,161c5.7-4.1,7-12.1,2.9-17.9c-0.6-0.9-15.4-21.1-35.3-39.3c-29.7-27.1-55.6-35.6-76.8-25.2
		C89,88.6,76.6,119.9,72,174.1c-3.2,37.1-1.6,71.2-1.5,72.7c0.3,6.8,6,12.2,12.8,12.2c0.2,0,0.4,0,0.6,0c7.1-0.3,12.5-6.3,12.1-13.4
		c0-0.3-1.6-34.1,1.5-69.5c5.3-61.1,19.2-72.4,23.4-74.4c21.9-10.7,63.5,33.5,80.3,56.5C205.3,163.8,213.2,165.1,219,161z"/>
	<linearGradient id="SVGID_6_" gradientUnits="userSpaceOnUse" x1="117.71" y1="-80.7798" x2="597.686" y2="358.6982">
		<stop  offset="0" style="stop-color:#32B2AB"/>
		<stop  offset="1" style="stop-color:#F6DA42"/>
	</linearGradient>
	<path class="st79" d="M428,174.1c-4.7-54.2-17-85.4-37.7-95.5c-21.2-10.3-47.1-1.8-76.8,25.2c-20,18.2-34.7,38.4-35.3,39.3
		c-4.1,5.7-2.9,13.7,2.9,17.8c5.7,4.1,13.7,2.9,17.9-2.8c16.7-23,58.3-67.2,80.3-56.5c4.1,2,18.1,13.3,23.4,74.4
		c3.1,35.4,1.5,69.1,1.5,69.5c-0.3,7.1,5.1,13.1,12.1,13.4c0.2,0,0.4,0,0.6,0c6.8,0,12.4-5.3,12.8-12.2
		C429.6,245.3,431.2,211.1,428,174.1z"/>
	<linearGradient id="SVGID_7_" gradientUnits="userSpaceOnUse" x1="-30.5619" y1="81.1554" x2="449.4141" y2="520.6334">
		<stop  offset="0" style="stop-color:#32B2AB"/>
		<stop  offset="1" style="stop-color:#F6DA42"/>
	</linearGradient>
	<path class="st80" d="M289.2,340.9c-5.1,0-9.3,4.2-9.3,9.4c0,5.7-4.6,10.3-10.3,10.3c-5.6,0-10.2-4.6-10.2-10.3v-4.1
		c3.9-1.8,7.5-4.6,10.4-8.4l11.9-15.5c7.3-9.5,5.7-16.5,4-19.8c-1.6-3.3-6.2-8.9-18.2-8.9h-34.9c-12,0-16.6,5.6-18.2,8.9
		c-1.6,3.3-3.3,10.3,4,19.8l11.9,15.5c2.9,3.8,6.4,6.7,10.4,8.4v4.1c0,5.7-4.6,10.3-10.3,10.3c-5.7,0-10.3-4.6-10.3-10.3
		c0-5.2-4.2-9.4-9.3-9.4c-5.2,0-9.4,4.2-9.4,9.4c0,16,13,29,29,29c7.3,0,14.3-2.8,19.6-7.7c5.3,4.9,12.3,7.7,19.6,7.7
		c16,0,29-13,29-29C298.6,345.1,294.4,340.9,289.2,340.9z"/>
	<linearGradient id="SVGID_8_" gradientUnits="userSpaceOnUse" x1="38.9265" y1="5.2637" x2="518.9025" y2="444.7417">
		<stop  offset="0" style="stop-color:#32B2AB"/>
		<stop  offset="1" style="stop-color:#F6DA42"/>
	</linearGradient>
	<path class="st81" d="M326.8,246.2c-12.5,0-22.6,10.1-22.6,22.6c0,12.5,10.1,22.6,22.6,22.6s22.6-10.1,22.6-22.6
		C349.3,256.4,339.2,246.2,326.8,246.2z"/>
	<linearGradient id="SVGID_9_" gradientUnits="userSpaceOnUse" x1="-31.0828" y1="81.7243" x2="448.8932" y2="521.2024">
		<stop  offset="0" style="stop-color:#32B2AB"/>
		<stop  offset="1" style="stop-color:#F6DA42"/>
	</linearGradient>
	<path class="st82" d="M173.2,246.2c-12.5,0-22.6,10.1-22.6,22.6c0,12.5,10.1,22.6,22.6,22.6c12.5,0,22.6-10.1,22.6-22.6
		C195.8,256.4,185.7,246.2,173.2,246.2z"/>
</g>
<g>
	<g>
		<g>
			<linearGradient id="SVGID_10_" gradientUnits="userSpaceOnUse" x1="-122.4958" y1="181.561" x2="357.4803" y2="621.039">
				<stop  offset="0" style="stop-color:#32B2AB"/>
				<stop  offset="1" style="stop-color:#F6DA42"/>
			</linearGradient>
			<path class="st83" d="M75.8,345.1c0,8.9-3.3,16.8-8.3,21.6c-3.2,3-7.1,4.8-11.3,4.8c-1.6,0-3.1-0.3-4.6-0.7
				c-2.4-0.8-4.6-2.1-6.5-3.9c0,0,0,0,0,0c-0.1-0.1-0.1-0.1-0.2-0.2c-5-4.8-8.3-12.7-8.3-21.6c0-14.5,8.8-26.4,19.7-26.4
				S75.8,330.6,75.8,345.1z"/>
		</g>
		<g>
			<linearGradient id="SVGID_11_" gradientUnits="userSpaceOnUse" x1="-103.4324" y1="160.7409" x2="376.5436" y2="600.2189">
				<stop  offset="0" style="stop-color:#32B2AB"/>
				<stop  offset="1" style="stop-color:#F6DA42"/>
			</linearGradient>
			<path class="st84" d="M117.6,345.1c0,8.9-3.3,16.8-8.3,21.6c-2.6,2.5-5.6,4.1-8.9,4.6c-0.8,0.1-1.6,0.2-2.4,0.2
				c-4.2,0-8.1-1.8-11.3-4.8c-5-4.8-8.3-12.7-8.3-21.6c0-14.5,8.8-26.4,19.7-26.4S117.6,330.6,117.6,345.1z"/>
		</g>
		<g>
			<linearGradient id="SVGID_12_" gradientUnits="userSpaceOnUse" x1="-105.3175" y1="162.7998" x2="374.6584" y2="602.2778">
				<stop  offset="0" style="stop-color:#32B2AB"/>
				<stop  offset="1" style="stop-color:#F6DA42"/>
			</linearGradient>
			<path class="st85" d="M145.7,378.5c0,3.6-0.7,6.9-1.8,9.8c-2.6,6.4-7.7,10.7-13.7,10.7c-2.5,0-4.8-0.7-6.8-2
				c-0.9-0.5-1.7-1.2-2.4-1.9c-1.8-1.8-3.4-4.1-4.5-6.8c-1.2-2.9-1.8-6.2-1.8-9.8c0-4,0.8-7.7,2.3-10.9c0.1-0.3,0.3-0.6,0.5-0.9
				c2.8-5.3,7.4-8.7,12.7-8.7c5.4,0,10,3.4,12.7,8.7C144.7,370,145.7,374.1,145.7,378.5z"/>
		</g>
		<g>
			<linearGradient id="SVGID_13_" gradientUnits="userSpaceOnUse" x1="-153.0835" y1="214.9674" x2="326.8925" y2="654.4454">
				<stop  offset="0" style="stop-color:#32B2AB"/>
				<stop  offset="1" style="stop-color:#F6DA42"/>
			</linearGradient>
			<path class="st86" d="M41,378.5c0,3.6-0.7,6.9-1.8,9.8c-1.5,3.8-3.9,6.8-6.9,8.7c-0.4,0.2-0.8,0.5-1.2,0.6
				c-1.7,0.9-3.6,1.4-5.6,1.4c-6,0-11.1-4.3-13.7-10.7c-1.2-2.9-1.8-6.2-1.8-9.8c0-4.4,1-8.5,2.8-11.8c2.8-5.3,7.4-8.7,12.7-8.7
				c5.3,0,10,3.4,12.7,8.7c0.2,0.3,0.3,0.6,0.5,0.9C40.1,370.7,41,374.5,41,378.5z"/>
		</g>
	</g>
</g>
<g>
	<g>
		<g>
			<linearGradient id="SVGID_14_" gradientUnits="userSpaceOnUse" x1="34.51" y1="10.0871" x2="514.486" y2="449.5652">
				<stop  offset="0" style="stop-color:#32B2AB"/>
				<stop  offset="1" style="stop-color:#F6DA42"/>
			</linearGradient>
			<path class="st87" d="M420.1,345.1c0,8.9-3.3,16.8-8.3,21.6c-3.2,3-7.1,4.8-11.3,4.8c-1.6,0-3.1-0.3-4.6-0.7
				c-2.4-0.8-4.6-2.1-6.5-3.9c0,0,0,0,0,0c-0.1-0.1-0.1-0.1-0.2-0.2c-5-4.8-8.3-12.7-8.3-21.6c0-14.5,8.8-26.4,19.7-26.4
				S420.1,330.6,420.1,345.1z"/>
		</g>
		<g>
			<linearGradient id="SVGID_15_" gradientUnits="userSpaceOnUse" x1="53.5734" y1="-10.7329" x2="533.5494" y2="428.7451">
				<stop  offset="0" style="stop-color:#32B2AB"/>
				<stop  offset="1" style="stop-color:#F6DA42"/>
			</linearGradient>
			<path class="st88" d="M461.9,345.1c0,8.9-3.3,16.8-8.3,21.6c-2.6,2.5-5.6,4.1-8.9,4.6c-0.8,0.1-1.6,0.2-2.4,0.2
				c-4.2,0-8.1-1.8-11.3-4.8c-5-4.8-8.3-12.7-8.3-21.6c0-14.5,8.8-26.4,19.7-26.4S461.9,330.6,461.9,345.1z"/>
		</g>
		<g>
			<linearGradient id="SVGID_16_" gradientUnits="userSpaceOnUse" x1="51.6882" y1="-8.6741" x2="531.6642" y2="430.804">
				<stop  offset="0" style="stop-color:#32B2AB"/>
				<stop  offset="1" style="stop-color:#F6DA42"/>
			</linearGradient>
			<path class="st89" d="M490,378.5c0,3.6-0.7,6.9-1.8,9.8c-2.6,6.4-7.7,10.7-13.7,10.7c-2.5,0-4.8-0.7-6.8-2
				c-0.9-0.5-1.7-1.2-2.4-1.9c-1.8-1.8-3.4-4.1-4.5-6.8c-1.2-2.9-1.8-6.2-1.8-9.8c0-4,0.8-7.7,2.3-10.9c0.1-0.3,0.3-0.6,0.5-0.9
				c2.8-5.3,7.4-8.7,12.7-8.7c5.4,0,10,3.4,12.7,8.7C489,370,490,374.1,490,378.5z"/>
		</g>
		<g>
			<linearGradient id="SVGID_17_" gradientUnits="userSpaceOnUse" x1="3.9223" y1="43.4935" x2="483.8983" y2="482.9716">
				<stop  offset="0" style="stop-color:#32B2AB"/>
				<stop  offset="1" style="stop-color:#F6DA42"/>
			</linearGradient>
			<path class="st90" d="M385.3,378.5c0,3.6-0.7,6.9-1.8,9.8c-1.5,3.8-3.9,6.8-6.9,8.7c-0.4,0.2-0.8,0.5-1.2,0.6
				c-1.7,0.9-3.6,1.4-5.6,1.4c-6,0-11.1-4.3-13.7-10.7c-1.2-2.9-1.8-6.2-1.8-9.8c0-4.4,1-8.5,2.8-11.8c2.8-5.3,7.4-8.7,12.7-8.7
				c5.3,0,10,3.4,12.7,8.7c0.2,0.3,0.3,0.6,0.5,0.9C384.4,370.7,385.3,374.5,385.3,378.5z"/>
		</g>
	</g>
</g>
</svg>
