<?xml version="1.0" encoding="utf-8"?>
<!-- Generator: Adobe Illustrator 21.0.2, SVG Export Plug-In . SVG Version: 6.00 Build 0)  -->
<svg version="1.1" id="Layer_1" xmlns="http://www.w3.org/2000/svg" xmlns:xlink="http://www.w3.org/1999/xlink" x="0px" y="0px"
	 viewBox="0 0 500 500" style="enable-background:new 0 0 500 500;" xml:space="preserve">
<style type="text/css">
	.st0{fill:url(#SVGID_1_);}
	.st1{fill:url(#SVGID_2_);stroke:#FFFFFF;stroke-width:2;stroke-miterlimit:10;}
	.st2{fill:url(#SVGID_3_);}
	.st3{fill:url(#SVGID_4_);stroke:#FFFFFF;stroke-width:2;stroke-miterlimit:10;}
	.st4{fill:#623113;}
	.st5{fill:#FFFFFF;}
	.st6{fill:#975A30;}
	.st7{fill:#E25B42;}
	.st8{fill:#0F365A;}
	.st9{fill:#F2F2F4;}
	.st10{fill:#F3FFFF;}
	.st11{fill:#D7553E;}
	.st12{fill:#404042;}
	.st13{fill:#F2A500;}
	.st14{fill:#C1C1C1;}
	.st15{fill:#513928;}
	.st16{fill:#1A1F21;}
	.st17{fill:#75C4B7;}
	.st18{fill:none;stroke:#0F365A;stroke-width:2;stroke-linecap:round;stroke-linejoin:round;stroke-miterlimit:10;}
	
		.st19{fill:none;stroke:#0F365A;stroke-width:2;stroke-linecap:round;stroke-linejoin:round;stroke-miterlimit:10;stroke-dasharray:8;}
	.st20{fill:#CCDAE4;}
	.st21{fill:#195E5C;}
	.st22{fill:#EAD9A4;}
	.st23{fill:#EA594B;}
	.st24{fill:#EA806B;}
	.st25{fill:#DA6E5A;}
	.st26{fill:#D3433B;}
	.st27{fill:#D5B564;}
	.st28{fill:#EF8B1E;}
	.st29{fill:#8CCBC4;}
	.st30{fill:#B2E0DA;}
	.st31{fill:#C97418;}
	.st32{fill:#1C344D;}
	.st33{fill:#D03823;}
	.st34{fill:#008A45;}
	.st35{fill:#84BE3F;}
	.st36{fill:#FF733F;}
	.st37{fill:#D07716;}
	.st38{fill:#F3A83B;}
	.st39{fill:#8B3454;}
	.st40{fill:#9F3E5C;}
	.st41{fill:#7F2A4B;}
	.st42{fill:#DA8A29;}
	.st43{fill:#98D8A1;}
	.st44{fill:#85C68B;}
	.st45{fill:#00A59F;}
	.st46{fill:#12BEB5;}
	.st47{fill:#038B84;}
	.st48{fill:#C97315;}
	.st49{fill:#7FC1B8;}
	.st50{fill:#639E97;}
	.st51{fill:#0EA08E;}
	.st52{fill:#5EAFA4;}
	.st53{fill:#7EC6BB;}
	.st54{fill:none;stroke:#176361;stroke-width:1.4192;}
	.st55{fill:#7AC143;}
	.st56{fill:#FFCA80;}
	.st57{fill:#E0AB67;}
	.st58{fill:#CE6654;}
	.st59{fill:#CE7516;}
	.st60{fill:#E95A24;}
	.st61{fill:#119D92;}
	.st62{fill:#BEEBEC;}
	.st63{fill:none;stroke:#87E2DC;stroke-width:2.8597;stroke-linecap:round;}
	.st64{fill:none;stroke:#EA594B;stroke-width:2.8597;stroke-linecap:round;}
	.st65{fill:#4A99A3;}
	.st66{fill:none;stroke:#4A99A3;stroke-width:8;stroke-linecap:round;stroke-linejoin:round;stroke-miterlimit:10;}
	.st67{fill:#D74D57;}
	.st68{fill:#795134;}
	.st69{fill:#EA6E26;}
	.st70{fill:#DAD4C4;}
	.st71{fill:#F5B317;}
	.st72{fill:#109098;}
	.st73{fill:#61A646;}
	.st74{fill:none;stroke:#5AC7D9;stroke-width:6;stroke-linecap:round;stroke-linejoin:round;stroke-miterlimit:10;}
	.st75{fill:#5AC7D9;}
	.st76{fill:#5AC7D9;stroke:#5AC7D9;stroke-width:7.2813;stroke-linecap:round;stroke-linejoin:round;stroke-miterlimit:10;}
	.st77{fill:none;stroke:#5AC7D9;stroke-width:7.2813;stroke-linecap:round;stroke-linejoin:round;stroke-miterlimit:10;}
	.st78{fill:url(#SVGID_5_);}
	.st79{fill:url(#SVGID_6_);}
	.st80{fill:url(#SVGID_7_);}
	.st81{fill:url(#SVGID_8_);}
	.st82{fill:url(#SVGID_9_);}
	.st83{fill:url(#SVGID_10_);}
	.st84{fill:url(#SVGID_11_);}
	.st85{fill:url(#SVGID_12_);}
	.st86{fill:url(#SVGID_13_);}
	.st87{fill:url(#SVGID_14_);}
	.st88{fill:url(#SVGID_15_);}
	.st89{fill:url(#SVGID_16_);}
	.st90{fill:url(#SVGID_17_);}
	.st91{fill:url(#SVGID_18_);}
	.st92{fill:url(#SVGID_19_);}
	.st93{fill:url(#SVGID_20_);}
	.st94{fill:url(#SVGID_21_);}
	
		.st95{fill-rule:evenodd;clip-rule:evenodd;fill:#5AC7D9;stroke:#5AC7D9;stroke-width:6;stroke-linecap:round;stroke-linejoin:round;stroke-miterlimit:10;}
	.st96{fill:url(#SVGID_130_);}
	.st97{fill:url(#SVGID_131_);}
	.st98{fill:url(#SVGID_132_);}
	.st99{fill:url(#SVGID_133_);}
	.st100{fill:url(#SVGID_134_);}
	.st101{fill:url(#SVGID_135_);}
	.st102{fill:url(#SVGID_136_);}
	.st103{fill:url(#SVGID_137_);}
	.st104{fill:url(#SVGID_138_);}
	.st105{fill:url(#SVGID_139_);}
	.st106{fill:url(#SVGID_140_);}
	.st107{fill:url(#SVGID_141_);}
	.st108{fill:url(#SVGID_142_);}
	.st109{fill:url(#SVGID_143_);}
	.st110{fill:url(#SVGID_144_);}
	.st111{fill:url(#SVGID_145_);}
	.st112{fill:none;stroke:#5AC7D9;stroke-width:6;stroke-miterlimit:10;}
	.st113{fill:#231F20;}
	.st114{fill:url(#SVGID_146_);}
	.st115{fill:url(#SVGID_147_);}
	.st116{fill:url(#SVGID_148_);}
	.st117{fill:url(#SVGID_149_);}
	.st118{fill:url(#SVGID_150_);}
	.st119{fill:url(#SVGID_151_);}
	.st120{fill:url(#SVGID_152_);}
	.st121{fill:url(#SVGID_153_);}
	.st122{fill:url(#SVGID_154_);}
	.st123{fill:url(#SVGID_155_);}
	.st124{fill:url(#SVGID_156_);}
	.st125{fill:url(#SVGID_157_);}
	.st126{fill:url(#SVGID_158_);}
	.st127{fill:url(#SVGID_159_);}
	.st128{fill:url(#SVGID_160_);}
	.st129{fill:url(#SVGID_161_);}
	.st130{fill:url(#SVGID_162_);}
	.st131{fill:url(#SVGID_163_);}
	.st132{fill:url(#SVGID_164_);}
	.st133{fill:url(#SVGID_165_);}
	.st134{fill:url(#SVGID_166_);}
	.st135{fill:url(#SVGID_167_);}
	.st136{fill:url(#SVGID_168_);}
	.st137{fill:url(#SVGID_169_);}
	.st138{fill:url(#SVGID_170_);}
	.st139{fill:url(#SVGID_171_);}
	.st140{fill:url(#SVGID_172_);}
	.st141{fill:url(#SVGID_173_);}
	.st142{fill:url(#SVGID_174_);}
	.st143{fill:url(#SVGID_175_);}
	.st144{fill:url(#SVGID_176_);}
	.st145{fill:url(#SVGID_177_);}
	.st146{fill:url(#SVGID_178_);}
	.st147{fill:url(#SVGID_179_);}
	.st148{fill:url(#SVGID_180_);}
	.st149{fill:url(#SVGID_181_);}
</style>
<g>
	<linearGradient id="SVGID_1_" gradientUnits="userSpaceOnUse" x1="66.0762" y1="72.603" x2="483.1179" y2="417.6375">
		<stop  offset="0" style="stop-color:#32B2AB"/>
		<stop  offset="1" style="stop-color:#F6DA42"/>
	</linearGradient>
	<path class="st0" d="M461.8,208.9c-1.3-9.2-3.7-17.9-7-26c5.1-11.6,7.2-24.2,5.7-35.6c-1.6-11.8-6.9-21.3-15.3-27.4
		c-13-9.5-28.2-3.6-47.5,3.9c-27-12.5-59-14.5-89.1-2.3c-25,10.2-44,27.4-57.7,51.8c-2.5-3.9-4.1-6.7-6-9.4
		c-25.2-36.5-60.4-54.2-104.2-49.9c-45,4.4-77,29.3-94.3,71.3C33.3,216.9,38,248.6,51,279c20.8,49.1,52.6,90.4,93.4,124.7
		c26.8,22.5,56.7,39.8,88.9,53.3c9.6,4,17.8,6.8,28.7,2.6C343.1,427.9,403,372.7,443.4,296C457.6,268.9,466.2,239.9,461.8,208.9z
		 M432.9,254c-32.6,86.3-92.2,146.2-177.5,180.8c-2.5,1-6.2,1.2-8.7,0.2c-70.5-27.9-124.2-75-160.5-141.7c-0.2-0.4-0.3-1-0.3-1
		c6.8-2.8,13.8-5,20.1-8.5c11.1-6.3,17.7-16.7,18.2-29.1c0.8-19.8,0.5-39.5,0.3-59.8c0,0,0,0,0,0c0-0.5,0-0.9,0-1.4
		c-0.4-6.4-5.8-11.6-12.3-11.6c-6.4,0-11.6,4.9-12.3,11.1v14c0,13.2,0,26.3,0,39.5c0,7-2.1,13-8.4,16.8c-8.5,5.3-19.2,1.3-22.9-8.4
		C53.4,214,72.8,166.5,113,146.9c39.2-19.1,88.5-5.3,111.2,31.1c5.5,8.8,4.9,17.6,0.3,26.7c-11.1,21.5-7.8,41.1,8.8,58.5
		c3.8,4,7.7,8.1,11.8,11.9c6.9,6.4,10.2,13.9,7.2,23.1c-2.9,9-9.6,14.1-19,15.2c-25.9,3-47.3-6.5-66.2-23.2c0,0,0,0,0,0
		c-0.3-0.2-0.6-0.5-0.9-0.8c-0.1-0.1-0.2-0.2-0.3-0.2c0,0-0.1-0.1-0.1-0.1c-1.1-0.8-2.3-1.5-3.6-1.9c-0.2-0.1-0.5-0.2-0.7-0.2
		c-0.4-0.1-0.8-0.2-1.2-0.3c-0.3-0.1-0.7-0.1-1-0.1c-0.3,0-0.7,0-1.1,0c-6.9,0-12.4,5.6-12.4,12.5c0,1.7,0.3,3.4,1,4.9
		c0.1,0.3,0.3,0.6,0.4,0.9c0.4,0.8,0.9,1.5,1.4,2.2c0.3,0.3,0.5,0.6,0.8,0.9c0.3,0.3,0.6,0.5,0.9,0.8c3.1,2.9,6.2,5.6,9.5,8.1
		c23,17.6,49.6,24.2,78,21.4c19-1.9,31.8-13.4,38.2-31.5c1-2.8,1.7-5.7,2.6-9.2c18,7.6,36.2,13,55.4,12.5c9.1-0.2,18.2-1.3,27.3-2.5
		c0.1,0,0.1,0,0.2,0c0.6-0.1,1.1-0.2,1.7-0.2c0.2,0,0.4-0.1,0.6-0.1c0.2,0,0.4-0.1,0.6-0.2c0.3-0.1,0.5-0.2,0.8-0.3c0,0,0,0,0,0
		c0.3-0.1,0.7-0.3,1-0.5c0.6-0.3,1.2-0.7,1.7-1c0.2-0.2,0.4-0.3,0.6-0.5c0.4-0.3,0.8-0.7,1.1-1c0.1-0.1,0.2-0.2,0.2-0.3
		c0.4-0.4,0.7-0.9,1-1.3c0.2-0.2,0.3-0.4,0.4-0.7c0.5-0.8,0.8-1.6,1.1-2.4c0-0.1,0.1-0.2,0.1-0.4c0-0.1,0.1-0.2,0.1-0.3
		c0.1-0.2,0.1-0.4,0.1-0.6c0-0.1,0-0.2,0.1-0.3c0.1-0.3,0.1-0.6,0.1-0.9c0-0.1,0-0.2,0-0.3c0-0.3,0-0.7,0-1
		c0-6.8-5.5-12.3-12.3-12.3c-0.4,0-0.8,0-1.2,0c0,0-0.1,0-0.1,0c-0.5,0.1-1,0.2-1.5,0.3c0,0-0.1,0-0.1,0c-2.5,0.4-5.1,0.8-7.6,1.1
		c-38.4,4-70.5-9.5-97.9-35.7c-6.2-6-11-13.6-8.8-22.4c1.5-5.9,5.2-12.6,10-15.8c8.2-5.5,13.6-12.1,17.8-20.9
		c13.6-28.6,36.3-45.8,67.8-50.1c9.1-1.2,19.7,0.4,29.5,2.9c-0.3,2.1-0.1,4.3,0.6,6.4c2.4,7.1,10.2,11,17.4,8.5
		c4.1-1.4,7.9-2.8,11.5-4.2c3.4-1.3,6.5-2.5,9.5-3.6c6.5-2.5,14.1-5.5,18.8-6.5h0c1.2-0.3,2.3-0.5,3-0.4c2,1.7,3,4.4,3.5,6.8
		c0,0,0,0,0,0c0.1,0.6,0.2,1.2,0.3,1.8c1.2,8.8-2,20.1-8,28.9c-0.6,0.9-1.2,1.8-1.9,2.6c-4.7,5.9-3.7,14.5,2.2,19.2
		c2.5,2,5.5,3,8.5,3c0.5,0,1.1,0,1.6-0.1C439.9,220.9,439.1,237.6,432.9,254z"/>
	<linearGradient id="SVGID_2_" gradientUnits="userSpaceOnUse" x1="45.286" y1="97.7319" x2="462.3278" y2="442.7664">
		<stop  offset="0" style="stop-color:#32B2AB"/>
		<stop  offset="1" style="stop-color:#F6DA42"/>
	</linearGradient>
	<ellipse style="fill:url(#SVGID_2_);" cx="186.3" cy="214.4" rx="11.2" ry="11.1"/>
	<linearGradient id="SVGID_3_" gradientUnits="userSpaceOnUse" x1="102.3949" y1="28.7047" x2="519.4366" y2="373.7392">
		<stop  offset="0" style="stop-color:#32B2AB"/>
		<stop  offset="1" style="stop-color:#F6DA42"/>
	</linearGradient>
	<ellipse class="st2" cx="303" cy="194.7" rx="11.2" ry="11.1"/>
</g>
</svg>
